<svg version="1.2" xmlns="http://www.w3.org/2000/svg" viewBox="0 0 642 508" width="642" height="508"><style>.a{opacity:1;fill:#9752e5}.b{opacity:1;fill:#6c88ef}.c{fill:#ffffff}.d{fill:#ffffff}.e{fill:#ffffff}.f{fill:#ffffff}.g{fill:#8b61e6}.h{fill:#806ee9}.i{fill:#767ced}.j{fill:#5c9bea}.k{fill:#61a0ea}.l{fill:#52b4e8}.m{fill:#4dc6e7}.n{fill:#f8f8f5}.o{fill:#fafaf7}.p{fill:#fcfcfa}</style><path class="a" d="m348 476l-14-6-11-14-2-46 26 3 34 20 55 18 7 6 5 11v8z"/><path class="b" d="m467 307l8-7 8 11 8 1 7 6-8 10-8 7 2 27-29-2-32-21-23-6-16-14v-6h24l53 1z"/><path class="c" d="m192 101l2-14 8-8 11-5 20 5 9 13-1 8-37-2zm68 6v-6l4-2 17-1 15-8h16l6 11v22l4 9 8 6 2 24-10 11-2 19-4 4h-11l-27-7-33-3-5-12-6-4v-5l2-6 5-3h6l3 4-4 7 34 6 18 3 21 4-2-15-1-3-3-29-1-3-1-6v-5l-1-3-1-11h-3l-17 17-4 2-6-5zm-114 19l-4-3 1-17 20-2 5 6zm45 6l29-4-4 14-10 10h-20l-12-2-3-4zm381 23l2-10 13-1 5 4v7zm-456 27l-12-4-4-6v-17l9-10 19 3v3l-5 10-4 12zm414-2h-6l-8-7v-10l15-1 4 3-4 10zm-384 10l1-10 7-14 9 12 2 22h23l10 5-4 5-14 14-10 10-12 12-8 8-14 14-8 8-6 5-5-4-2-20-4-4-1-8-10-10v-13l4-3v-7h11l4 15 8 20 19-20 2-7-3-27zm90 15l3-3h14l4 6 12 1 10 9 1 10 5 5 4 12 10 6 2 9 21 6v6l-10 10-15-14-5-5-6-7-17-17zm280 51l-10-13 2-16 22-5v18l-8 12zm120-10l1-18h5v18zm-424-14l6-3 24 24 7 9-20 2-4-5-20-6-6-6 6-8zm386 30v9l-7 7-17-4-2-12h12zm-420 5l2-1 10 4 2 17-3 4-13 5h-16l-6-4 4-6 13-12zm104 28l-10 9h-11l-9-15 4-20 6 4 7 8 7 7zm185 12l-6-5-5-17 20-1 6 7-7 9zm-439 6l3-15 5-3 57 1 9 5-10 12h-60zm340 0l2-7h15l19-6 4 3v10h-24zm-235-1l5-4 7 6 1 20-11 11-22 9-1-15v-4zm-133 102v-94h7l2 3-4 11v67l6 11zm112-16l1-1 9 2 4 6v18l-3 3h-14l-9-9 9-9z"/><path class="d" d="m42 0l-4 28h-6l-3-4-3-24zm410 0l-2 7h-6l-2-7zm-266 102v-17l6-12 7-2 43 1 10 18h19l3-4 44-8h12l4 3-3 35 2 17 3 5 12 3 3 6 4 1 1 8-12 11v7l-6 9v17l-23 12-11 14 2 14 23 3 3 8h6l8 5-1 15-10 12-14 7-9-8 10-10v-6l-21-6-2-9-10-6-4-12-5-5-1-10-10-9-12-1-4-6h-14l-3 3-2-1-16-17 2-9-16-7-4-7-12-3-2-9h20l10-10 4-14 16 2 16 6 1 2v5l7 7-10 10-3-4h-6l-5 3-2 6v5l6 4 5 12 33 3 27 7h11l4-4 2-19 10-11-2-24-8-6-4-9v-22l-6-11h-16l-15 8-17 1-4 2v6l-14-4-5-3 1-8-9-13-20-5-11 5-8 8-2 14zm-44 28l-5-3-1-8-8-10v-7l5-8h24l14 6 5 6-2 2-6 2-5-6-20 2-1 17 4 3v1zm415 25l1-23h11l9-4h21l11 5v22h-18v-7l-5-4-13 1-2 10zm-442 34l-9-2-8-6-4-14v-12l7-11 5-2 3 3-9 10v17l4 6 12 4v3zm414-1l-20-2-3-30 10-8h10l10 2 7 8-8 7-4-3-15 1v10l8 7h6zm102-25l5-5h6v24h-4zm-477 1l2-2 10 7 11 20 9 3 2 8h-23l-2-22-9-12zm-154 102l22 1 9 15 9 2 30-2 11 6 27 2 3-15-3-3v-7l-6-6-7-26-5-4v-8l5-3 1-5 8-1v7l-4 3v13l10 10 1 8 4 4 2 20 5 4-11 13-9 7-9-5-57-1-5 3-3 15-13 4-6 6-2-3h-7v-11l11-3 5-11v-5l-5-5-11-1zm351 47l2-16 4-4 10-2 9-11 38-5 4-8 12-8 21-1 10 8h23l9-14 1-21 7-3 1-10 4-5 23-1 1 10-22 5-2 16 10 13-26 28-8 7-6-7-20 1 5 17 6 5-6 7-53-1v-10l-4-3-19 6h-15l-2 7zm286-85v-10h5v10zm-441 20l3-1 6 6 20 6 4 5 20-2 7 7-4 20 9 15h11l10-9 6 6-2 7-24 22h-5l-7 8h-8l-18-12v-16l17-16 3-18-6-4h-10l-6-7-15-3-1 16 4 6v12l-5 5-6 3-11-2-31 2-7 6 3 36 7 4v7l-6 9-17 1-8 10v21l7 9-1 17-10 8h-18l-10-2-4-10 7-3 9 9h14l3-3v-18l-4-6-9-2v-43l22-9 11-11-1-20-7-6 13-14 3-2 6 4h16l13-5 3-4-2-17-10-4zm352 20l4-5 20-1 2 12 17 4 7-7v-9h4 8l4 14 6 5v10l-10 11h-22l-7-5-19-2-10-8zm-37 37l6-5 16 9 2 26-5 5-14-2-11 2-7-10-8-2 8-10zm-190 51l-25 6-24-7v-13l7-7 7-4 27-5 10 10zm-321 58l11-2 15 8h48v6l-12 10h-25l-6-8-31-2zm338 94v-14l10-5v-13h100 4l2 12 6 5v15h-46l-2-8-10-2-33 3-1 7z"/><path fill-rule="evenodd" class="e" d="m0 266v-266h26l3 24 3 4h6l4-28h400l2 7h6l2-7h190v158h-6l-5 5-8-6-13-2v-22l-11-5h-21l-9 4h-11l-1 23-14 3-7-8-10-2h-10l-10 8 3 30 20 2v24l-23 1-4 5-1 10-7 3-1 21-9 14h-23l-10-8-21 1-12 8-4 8-38 5-9 11-10 2-4 4-2 16-8 1-22-24 14-7 10-12 1-15-8-5h-6l-3-8-23-3-2-14 11-14 23-12v-17l6-9v-7l12-11-1-8-4-1-3-6-12-3-3-5-2-17 3-35-4-3h-12l-44 8-3 4h-19l-10-18-43-1-7 2-6 12v17l-10 4-5-6-14-6h-24l-5 8v7l8 10 1 8 5 3-14 18-19-3-3-3-5 2-7 11v12l4 14 8 6 9 2v23h-11l-8 1-1 5-5 3v8l5 4 7 26 6 6v7l3 3-3 15-27-2-11-6-30 2-9-2-9-15zm260-116l-7-7v-5l12 7zm-104 12l13-16h2l3 4 12 2 2 9 12 3 4 7 16 7-2 9-4 1-13 15-3 2-10-5-2-8-9-3-11-20zm481 50l1-30h4v36h-5zm-27 50l18-4 8-12h6v262h-182v-15l-6-5-2-12 13-2 12-9 6-13 1-18v-72l-2-27 8-7 8 2 7 10 11-2 14 2 5-5-2-26-16-9 29-31 2-1 4 19 10 8 19 2 7 5h22l10-11v-10l-6-5zm-517 158l4 10 10 2h18l10-8 1-17-7-9v-21l8-10 17-1 6-9v-7l-7-4-3-36 7-6 31-2 11 2 6-3 5-5v-12l-4-6 1-16 15 3 6 7h10l6 4-3 18-17 16v16l18 12h8l7-8h5l24-22 2-7 25 25-27 5-7 4-7 7v13l24 7 25-6v54l2 46 11 14 14 6v13l-10 5v14h-338v-82l31 2 6 8h25l12-10v-6zm-93-111v-25l11 1 5 5v5l-5 11zm368 199l1-7 33-3 10 2 2 8z"/><path class="f" d="m145 192l1-2-1 3zm-33 202v-55l1 15v43l-1 1z"/><path class="g" d="m321 410v-38l38 7 14 9 15 5 21 15 28 8 40 18h7l-1 18-6 13-12 9-13 2h-4v-8l-5-11-7-6-55-18-34-20z"/><path class="h" d="m321 356l2-20h15l20 11 13 2 28 11 64 35 21 1v38h-7l-40-18-28-8-21-15-15-5-14-9-38-7z"/><path class="i" d="m276 288l21-20 15 14 9 8 22 24 8-1h17 16v6l16 14 23 6 32 21 29 2v34l-21-1-64-35-28-11-13-2-20-11h-15l-10-10-25-25-6-6z"/><path class="j" d="m522 252l8-12 34 4 3 8h12l4 3 1 7h-12l-20 1-4 5-2 1zm-40 39l8-7 18 15 3 6-13 13-7-6-8-1-8-11z"/><path class="k" d="m584 262l-1-7-4-3h-12l-3-8 21 2 7 6h6l4 10h-4zm-68-6l6-4 24 17-29 31-6 5-3-6-18-15z"/><path class="l" d="m530 180l1-5 24 18 17 6 5 6 30 9 30-2v6 10l-1 18-8 12-18 4h-8l-4-10h-6l-7-6-21-2-34-4v-18l-1-10v-24z"/><path class="m" d="m543 158l14-3h15 20 18l13 2 8 6 7 19-1 30-30 2-30-9-5-6-17-6-24-18 4-10z"/><path class="n" d="m119 173l4-12 10 6v4l-3 3zm61 51l14-14 4 12 14 10-7 7-9-10zm-44 44l14-14 4 10 17 10-13 12-12-14zm133 13l10-5 13-13 5 5-21 20z"/><path class="o" d="m236 130l2-16 8-5v-6l14 4 19 12-5 5-19 5-3 7zm53-8l17-17h3l1 11 1 3v5zm-121-12l6-2 2 7 13 9 2 8-20 14h-2l-9-13-14-6v-1zm-45 51l5-10 6 1 12 11 8 1v2l-7 14-1 10-1 2-13-1-9-6h-7v-3l3-9 11 1 3-3v-4zm157 12l1-5h15l2 8zm-82 32l3-2 5 9 7 4h12l9-12 2 1 33 34-4 3-19-2-4 13-24-24-6 3-14-10-4-12zm-79 22l18-5 9 5-19 20zm51 7l10-10 16 5 9 10-6 8-3 1-10-10zm-20 20l8-8 6 11 14 10-7 7-17-10zm112 19l2-3 13-3 9-11 6 7-13 13-10 5zm-134 3l8-8 10 4 12 14-4 6-3 2-11-14zm-26 25l9-7 11 14 11 4-21 23h-4l-6-8-6-2-11 3h-45l-8-9v-6h60zm-16 119v-7l6-13 12-6h8v4l-3 10-9 9-7 3z"/><path class="p" d="m192 101l12-3 37 2 5 3v6l-8 5-2 16-16-2-29 4-2-8-13-9-2-7 2-2 10-4zm60 35l3-7 19-5 5-5 6 5 4-2 22 2 1 6 1 3 3 29 1 3 2 15-21-4-2-8h-15l-1 5-34-6 4-7 10-10 5-5-12-7zm-110-6l4-3 14 6 9 13-13 16-2 2-8-1-12-11-6-1v-3zm-27 59l1-4h7l9 6 13 1v1l3 27-2 7-9-5-18 5-4-15v-4-7zm86 14l13-15 4-1 16 17-9 12h-12l-7-4zm-43 43l12-12 16 4 10 10-16 18-2 1-14-10zm84 7l4-13 19 2 4-3 17 17-9 11-13 3-2 3-6-4-7-7zm-120 28l6-5 12 4 11 14-13 14-5 4-11-4-11-14zm-113 42l6-6 13-4h4v6l8 9h45l11-3 6 2 6 8h4v4 55h-8l-12 6-6 13v7h-12-48l-15-8-6-11v-67z"/><path class="d" d="m467 198h11l2 8-16 8-2-13z"/></svg>