<?xml version="1.0" standalone="no"?>
<!DOCTYPE svg PUBLIC "-//W3C//DTD SVG 20010904//EN"
 "http://www.w3.org/TR/2001/REC-SVG-20010904/DTD/svg10.dtd">
<svg version="1.0" xmlns="http://www.w3.org/2000/svg"
 width="2367.000000pt" height="1504.000000pt" viewBox="0 0 2367.000000 1504.000000"
 preserveAspectRatio="xMidYMid meet">
<metadata>
Created by potrace 1.16, written by Peter Selinger 2001-2019
</metadata>
<g transform="translate(0.000000,1504.000000) scale(0.100000,-0.100000)"
fill="#000000" stroke="none">
<path d="M0 7520 l0 -7520 11835 0 11835 0 0 7520 0 7520 -11835 0 -11835 0 0
-7520z m10967 4335 c123 -26 239 -71 358 -140 54 -31 126 -83 137 -99 8 -11
20 -1 137 111 72 69 101 87 101 62 0 -6 11 -93 25 -193 35 -247 72 -546 68
-550 -2 -2 -20 1 -41 5 -43 9 -149 30 -459 90 -130 25 -223 48 -223 54 0 6 43
53 95 104 52 52 95 95 95 96 0 7 -166 109 -205 126 -122 54 -351 64 -485 20
-205 -66 -394 -248 -469 -451 -45 -124 -54 -284 -22 -410 l19 -75 -51 -54
c-70 -72 -167 -165 -175 -168 -10 -4 -68 151 -92 246 -16 64 -21 115 -21 210
0 130 8 185 43 306 60 208 221 425 410 553 109 74 280 142 418 165 63 11 274
6 337 -8z m3868 -581 c59 -32 93 -68 120 -126 25 -53 25 -54 25 -389 l0 -335
-25 -50 c-31 -63 -67 -98 -125 -120 -39 -16 -91 -19 -371 -24 l-326 -5 -69
-70 c-414 -421 -616 -629 -629 -648 -11 -18 -13 -31 -5 -57 12 -40 14 -580 3
-580 -5 0 -7 17 -7 39 2 31 -3 41 -22 51 -13 7 -21 17 -18 22 3 4 2 8 -3 8 -4
0 -9 -28 -9 -63 -1 -34 -3 -74 -5 -89 -5 -42 -21 -16 -23 36 0 28 -5 46 -12
46 -7 0 -14 7 -18 15 -3 8 -1 15 4 15 6 0 10 -5 10 -11 0 -5 5 -7 11 -3 8 5 6
10 -5 16 -24 13 -39 0 -33 -30 5 -25 4 -25 -9 -7 -8 10 -14 23 -14 28 0 4 -4
6 -10 2 -5 -3 -7 -12 -4 -19 3 -8 0 -17 -6 -21 -9 -6 -9 -10 1 -17 11 -8 11
-9 -1 -5 -10 2 -14 15 -13 43 1 28 -1 34 -6 19 -5 -11 -6 -24 -3 -29 7 -12
-42 5 -50 17 -3 6 -14 11 -25 12 -42 5 -75 35 -38 35 21 0 19 12 -6 33 -14 13
-18 24 -13 39 6 20 5 21 -9 6 -9 -9 -14 -26 -12 -38 2 -13 1 -19 -3 -16 -4 4
-7 13 -7 18 0 6 -6 13 -14 16 -9 3 -11 0 -6 -9 5 -8 4 -10 0 -6 -16 14 -14 41
2 59 9 10 14 21 10 24 -3 3 -10 -4 -16 -15 -7 -12 -17 -18 -26 -15 -9 4 -21 1
-29 -5 -18 -15 -46 -3 -46 19 0 24 16 34 23 16 3 -8 1 -17 -6 -20 -7 -2 -2 -5
10 -5 23 -1 26 25 4 39 -9 5 -10 10 -2 14 6 4 11 3 11 -2 0 -5 14 -9 30 -10
17 0 30 3 30 7 0 5 -10 7 -22 7 -13 -1 -28 2 -34 6 -7 5 -18 2 -27 -7 -9 -8
-24 -15 -34 -16 -10 0 -13 -3 -5 -6 17 -7 15 -23 -3 -23 -8 0 -15 9 -15 20 0
11 6 20 14 20 8 0 17 4 20 9 3 4 -6 6 -19 3 -14 -2 -25 -8 -25 -12 0 -4 -15 7
-34 24 -18 17 -32 34 -29 38 2 4 13 -2 23 -12 11 -11 25 -20 32 -20 6 0 -4 14
-22 30 -33 30 -70 40 -70 19 0 -5 -5 -7 -10 -4 -6 4 -8 11 -5 16 4 5 -4 9 -15
9 -14 0 -20 5 -17 13 3 8 2 20 -3 27 -6 9 -13 7 -29 -9 -12 -12 -19 -26 -15
-32 3 -6 -3 -5 -15 3 -12 7 -21 16 -21 20 0 4 -12 3 -26 -2 -16 -7 -23 -7 -19
0 3 6 1 10 -4 10 -6 0 -11 5 -11 11 0 6 9 8 23 4 17 -5 19 -4 7 4 -12 9 -11
11 8 11 16 0 21 -4 16 -12 -5 -9 -2 -9 9 1 9 7 17 14 17 15 0 7 -65 4 -80 -4
-11 -6 -21 -6 -24 -1 -3 5 6 12 21 16 24 6 26 8 10 16 -10 6 -14 15 -11 21 5
7 2 8 -5 4 -7 -5 -10 -14 -7 -22 3 -8 -1 -14 -10 -14 -8 0 -14 7 -12 16 2 10
-3 19 -9 21 -7 3 -13 -2 -13 -11 0 -10 -6 -13 -17 -9 -12 5 -15 2 -10 -10 9
-23 -8 -30 -27 -11 -9 8 -16 12 -16 7 0 -4 -5 -1 -10 7 -8 12 -10 11 -10 -7 0
-13 8 -24 21 -28 16 -6 18 -9 8 -15 -22 -14 -42 25 -34 66 5 29 9 34 26 29 10
-4 19 -2 19 4 0 20 -20 21 -40 1 -11 -11 -24 -20 -30 -20 -5 0 -10 -4 -10 -10
0 -21 -18 -9 -22 15 -6 31 7 41 29 23 12 -9 15 -9 9 0 -5 8 0 12 13 12 12 0
21 5 21 11 0 5 -5 7 -11 3 -7 -4 -25 -7 -40 -6 -16 0 -29 -3 -29 -7 0 -4 -16
-7 -36 -8 -22 -1 -41 -8 -50 -20 -11 -14 -14 -14 -13 -3 3 32 -2 47 -15 47
-16 0 -16 -27 2 -45 13 -14 16 -32 6 -32 -3 0 -14 10 -25 23 -16 19 -18 20
-19 4 0 -10 5 -15 10 -12 6 3 10 0 10 -7 0 -8 -13 -13 -35 -14 -26 0 -34 3
-31 13 3 7 -1 13 -9 13 -8 0 -15 -4 -15 -10 0 -5 -5 -10 -10 -10 -6 0 -3 11 6
25 10 15 12 25 5 25 -6 0 -18 -14 -26 -30 -9 -17 -19 -29 -23 -27 -44 20 -62
32 -62 40 0 5 7 4 15 -3 8 -7 21 -10 29 -7 8 3 17 1 20 -6 2 -7 5 -5 5 4 1 9
-6 20 -15 23 -8 3 -12 2 -9 -4 3 -6 2 -10 -4 -10 -5 0 -11 8 -13 17 -3 14 -7
13 -30 -8 -21 -18 -26 -30 -22 -46 4 -13 10 -20 15 -18 4 3 6 12 2 20 -3 8 0
15 6 15 6 0 11 -9 11 -20 0 -23 10 -26 29 -7 11 10 13 8 9 -9 -4 -17 -2 -20
13 -17 10 3 16 9 13 14 -3 5 1 9 8 9 7 0 14 -12 15 -27 0 -14 -2 -22 -5 -16
-11 16 -76 12 -88 -5 -9 -13 -13 -9 -24 22 -6 20 -20 42 -30 48 -10 7 -16 18
-12 26 3 9 1 13 -5 9 -11 -7 -25 27 -16 37 3 3 16 -2 29 -11 23 -15 24 -14 24
10 0 24 -22 52 -32 42 -12 -12 -27 21 -16 35 8 12 9 12 4 -2 -3 -10 0 -18 6
-18 6 0 17 8 24 18 12 16 13 15 14 -8 0 -18 3 -21 9 -12 6 11 10 10 15 -3 3
-10 1 -24 -5 -31 -12 -14 -4 -34 14 -34 8 0 8 3 0 11 -8 8 -7 19 4 40 8 16 17
29 19 29 3 0 3 -4 -1 -9 -3 -5 1 -15 8 -23 8 -7 12 -20 10 -28 -3 -10 0 -9 7
3 6 9 16 17 21 17 6 0 7 -5 3 -11 -6 -10 4 -7 37 13 3 1 13 -3 21 -10 13 -10
18 -9 29 5 8 9 9 14 2 10 -6 -4 -15 -3 -18 3 -5 8 -11 8 -20 0 -18 -15 -28 3
-20 33 6 20 5 21 -8 5 -8 -10 -18 -14 -23 -10 -5 4 0 -3 10 -15 18 -22 18 -22
-10 -19 -16 2 -29 8 -28 15 2 27 5 31 17 31 14 0 18 42 4 51 -5 3 -1 9 8 12
10 4 14 3 9 -4 -4 -7 4 -10 22 -7 17 2 29 -2 32 -11 3 -10 0 -12 -14 -7 -15 5
-16 4 -7 -5 16 -16 36 -1 30 23 -4 15 -2 18 10 14 13 -5 14 -4 3 9 -7 8 -16
12 -21 10 -14 -10 -59 7 -59 21 0 8 -7 14 -15 14 -8 0 -15 -8 -15 -17 0 -15
-2 -16 -9 -3 -6 8 -7 19 -3 25 3 5 -2 4 -11 -4 -11 -9 -17 -10 -17 -2 0 6 -5
11 -11 11 -6 0 -9 -7 -5 -15 3 -9 0 -15 -9 -15 -8 0 -15 7 -15 15 0 18 -1 18
-35 5 -17 -7 -24 -7 -20 0 3 6 1 10 -6 10 -7 0 -21 8 -32 18 -19 16 -19 16
-13 -5 5 -15 3 -23 -4 -23 -6 0 -9 4 -6 8 2 4 1 14 -4 21 -5 10 -10 4 -15 -19
-5 -23 -10 -29 -18 -21 -15 15 -47 14 -47 -1 0 -9 -4 -8 -10 2 -5 8 -10 11
-10 6 0 -5 -9 -1 -20 9 -11 10 -20 13 -20 7 0 -7 5 -12 10 -12 6 0 10 -7 10
-16 0 -8 4 -12 10 -9 6 3 7 -1 4 -9 -4 -9 1 -18 10 -22 9 -3 16 -11 16 -17 0
-7 -83 71 -185 173 -102 102 -185 187 -185 190 0 4 7 15 16 26 8 10 13 13 9 7
-3 -7 -2 -13 4 -13 6 0 8 -7 5 -15 -4 -8 -1 -15 5 -15 6 0 11 7 11 16 0 11 6
14 20 9 11 -4 20 -2 20 4 0 11 -13 15 -37 12 -7 -1 -13 3 -13 9 0 6 5 8 10 5
6 -3 10 -1 10 5 0 6 4 9 9 5 10 -6 7 26 -5 48 -3 6 5 -1 20 -18 24 -29 25 -29
26 -7 0 19 3 21 19 13 10 -6 21 -7 25 -4 10 11 46 11 46 0 0 -6 5 -6 13 0 17
13 43 10 40 -5 -2 -6 4 -9 12 -6 23 9 19 20 -35 74 -28 27 -47 50 -41 50 17 0
406 -393 394 -397 -21 -8 -14 -26 7 -20 12 3 20 0 20 -8 0 -16 16 -22 58 -20
17 1 32 -2 32 -8 0 -6 5 -6 13 1 6 5 31 9 55 8 27 -1 41 2 38 9 -2 6 6 12 17
13 17 1 19 -1 7 -8 -8 -5 -10 -10 -5 -11 6 0 18 -2 28 -4 9 -2 17 3 17 11 0 8
5 14 10 14 6 0 10 -4 10 -10 0 -5 4 -10 10 -10 5 0 7 7 3 16 -4 12 -2 15 8 12
8 -3 13 -14 12 -24 -1 -10 0 -13 3 -6 3 6 10 10 15 6 5 -3 8 0 7 7 -4 14 13
16 170 20 67 2 122 7 122 11 0 4 -23 6 -50 4 -28 -1 -56 1 -63 6 -13 8 45 10
377 12 183 1 220 -1 224 -14 3 -9 130 113 363 350 l358 365 1 327 c0 299 2
332 19 378 36 96 92 146 188 169 21 5 182 9 358 8 306 -2 322 -3 360 -23z
m-3688 -656 c328 -329 443 -450 443 -464 0 -3 -4 -3 -9 0 -5 3 -51 -37 -102
-89 -52 -52 -99 -95 -104 -95 -6 0 -141 133 -300 295 -159 162 -294 295 -300
295 -6 0 -77 -69 -159 -152 -82 -84 -312 -318 -512 -519 -200 -202 -364 -373
-365 -380 0 -8 -1 -158 -2 -334 -2 -314 -2 -321 -26 -373 -28 -62 -93 -124
-149 -140 -27 -8 -144 -12 -365 -12 -304 0 -330 1 -381 20 -64 24 -115 76
-140 141 -15 39 -16 85 -14 384 l3 340 29 58 c33 66 53 82 133 109 50 16 92
18 376 18 l319 0 272 276 c465 473 977 984 984 984 4 0 170 -163 369 -362z
m-7042 -4749 l0 -1124 -220 0 -220 0 -3 83 -3 83 -37 -32 c-65 -57 -154 -109
-227 -132 -96 -30 -364 -32 -465 -3 -91 26 -223 91 -284 141 -122 100 -231
281 -271 448 -33 140 -29 342 10 496 35 134 166 337 267 414 140 107 377 177
546 163 161 -13 318 -71 395 -144 l37 -36 0 380 c0 210 2 383 4 385 2 2 109 3
238 3 l233 -2 0 -1123z m4804 1005 c8 -8 -1 -1819 -9 -1833 -4 -8 -8 28 -9 84
-1 67 -6 102 -16 111 -7 7 -11 23 -8 35 4 16 8 17 14 7 5 -8 8 15 8 57 -1 39
-4 61 -6 51 -4 -14 -7 -16 -13 -6 -10 16 -1 42 11 34 10 -6 12 67 10 435 -1
155 -9 207 -12 74 -1 -39 -6 -77 -11 -84 -7 -11 -9 -9 -7 6 5 60 -2 105 -15
105 -8 0 -17 6 -19 13 -3 6 -4 -3 -2 -20 2 -18 0 -33 -5 -33 -4 0 -7 -11 -5
-25 1 -14 -2 -25 -7 -25 -5 0 -7 -4 -3 -9 3 -5 1 -12 -5 -16 -5 -3 -10 -11
-10 -16 0 -6 5 -7 12 -3 8 5 9 2 3 -12 -4 -10 -7 -49 -6 -86 0 -38 -2 -68 -7
-68 -4 0 -8 28 -9 63 -3 233 -5 247 -34 261 -18 9 -32 10 -44 3 -12 -7 -20 -5
-26 4 -7 12 -10 12 -18 1 -4 -8 -17 -12 -27 -10 -20 3 -21 -3 -8 -36 5 -13 4
-17 -4 -12 -6 3 -15 -2 -21 -11 -6 -10 -11 -13 -11 -8 0 6 5 16 11 22 9 9 8
16 -4 28 -9 8 -14 22 -10 30 4 11 0 14 -13 9 -15 -4 -16 -4 -5 4 8 6 11 17 7
28 -8 21 -24 8 -29 -23 -2 -13 -6 -26 -10 -29 -12 -13 -7 -24 8 -18 8 4 15 1
15 -5 0 -6 -6 -10 -12 -8 -7 1 -13 -8 -13 -20 0 -13 -5 -22 -10 -20 -6 1 -10
12 -10 24 1 17 -3 20 -16 12 -12 -6 -19 -4 -23 7 -4 12 -2 15 9 10 8 -3 15 -1
15 3 0 5 -6 11 -12 13 -10 4 -14 94 -16 398 -2 217 -5 396 -7 399 -3 2 -6
-148 -6 -335 -1 -186 -5 -586 -8 -889 -7 -532 -7 -518 -9 396 l-2 945 233 -4
c127 -2 234 -6 236 -8z m1648 4 c5 -7 24 -47 41 -88 37 -88 166 -388 264 -615
39 -88 82 -189 98 -225 51 -119 197 -453 255 -585 31 -71 70 -161 85 -200 15
-38 62 -143 104 -233 42 -90 76 -168 76 -173 0 -5 -105 -9 -255 -9 l-255 0
-15 38 c-9 20 -29 73 -45 117 -16 44 -48 127 -72 185 l-43 105 -493 3 c-297 1
-492 6 -492 12 0 5 21 9 48 8 95 0 132 2 132 10 0 7 -17 9 -112 12 -27 1 -48
7 -48 13 0 7 -4 7 -12 -1 -7 -7 -17 -12 -23 -12 -5 0 -3 5 5 10 10 6 11 10 3
10 -7 0 -13 5 -13 11 0 8 4 9 13 0 8 -6 17 -8 20 -4 4 3 20 7 37 8 16 1 43 2
60 3 29 2 36 18 15 35 -6 4 -4 11 5 17 9 6 10 10 3 10 -6 0 -15 -5 -18 -11 -5
-7 -14 -4 -26 7 -10 9 -19 13 -19 9 0 -5 -6 0 -14 10 -17 23 -10 41 9 25 17
-14 27 1 14 20 -7 12 -9 12 -9 1 0 -11 -3 -11 -17 0 -11 10 -14 10 -9 2 4 -8
1 -13 -9 -13 -9 0 -13 5 -9 11 3 6 0 15 -7 20 -12 8 -12 11 1 19 22 14 30 12
24 -5 -4 -8 -1 -15 5 -15 6 0 11 7 11 15 0 8 5 15 11 15 6 0 9 7 5 15 -3 8 -1
15 4 15 20 0 -2 26 -23 27 -12 0 -16 -1 -9 -4 25 -10 13 -41 -19 -48 -24 -5
-30 -11 -26 -26 4 -15 0 -19 -18 -19 l-24 0 27 29 c15 15 36 34 47 40 18 12
19 12 1 6 -11 -3 -23 0 -28 7 -6 10 -8 9 -8 -2 0 -20 -80 -64 -105 -57 -14 3
-11 5 9 6 23 1 27 4 18 13 -9 9 -18 9 -36 0 -19 -9 -28 -8 -38 1 -15 14 -39
19 -91 20 -32 1 -37 4 -34 19 3 9 -1 22 -9 29 -11 9 -14 8 -14 -2 0 -11 -3
-11 -11 1 -9 12 -10 11 -6 -6 2 -12 0 -28 -5 -35 -8 -11 -9 -10 -4 4 3 11 0
17 -9 17 -8 0 -15 5 -15 10 0 6 5 10 10 10 6 0 10 8 10 19 0 18 16 62 46 128
8 17 27 62 43 100 16 37 49 115 74 173 239 552 387 907 387 927 0 10 41 13
183 15 100 2 216 4 258 6 53 2 79 -1 86 -10z m3643 -313 l0 -205 200 0 200 0
0 -180 0 -180 -197 -2 -198 -3 0 -370 c0 -368 0 -370 24 -418 35 -73 77 -99
164 -105 61 -4 82 0 136 22 35 14 65 25 66 23 1 -1 26 -75 57 -164 62 -184 63
-174 -23 -212 -83 -37 -177 -54 -304 -54 -176 1 -305 39 -407 120 -48 39 -128
160 -147 223 -23 77 -31 221 -31 567 l0 363 -87 1 c-49 1 -102 1 -119 0 l-31
-1 -6 154 c-4 86 -4 169 -1 186 l7 30 116 -2 116 -3 3 208 2 207 230 0 230 0
0 -205z m-8865 -170 c123 -17 253 -59 333 -107 76 -46 163 -144 207 -234 68
-141 70 -154 70 -764 l0 -545 -211 -3 -211 -2 -7 31 c-3 17 -6 57 -6 87 l0 56
-42 -40 c-99 -93 -201 -137 -354 -152 -187 -19 -367 17 -491 99 -118 76 -187
188 -206 329 -28 209 66 387 248 475 139 67 266 85 593 85 l223 0 -7 48 c-12
80 -33 125 -81 174 -68 69 -142 92 -293 92 -142 0 -217 -18 -359 -87 -123 -59
-104 -70 -193 107 -88 175 -86 160 -27 196 113 69 294 130 460 154 127 19 225
19 354 1z m2160 -4 c245 -51 400 -187 474 -414 16 -51 33 -114 36 -142 10 -68
15 -1069 6 -1084 -5 -8 -70 -11 -240 -9 l-233 3 1 425 c2 547 -9 631 -99 733
-59 67 -123 91 -240 91 -84 1 -103 -3 -157 -28 -106 -48 -188 -162 -213 -295
-6 -31 -10 -236 -10 -493 l0 -438 -237 2 -238 3 -3 818 -2 817 227 -2 228 -3
3 -82 c2 -46 5 -83 8 -83 2 0 28 18 56 41 168 133 411 186 633 140z m8315 4
c360 -58 584 -250 686 -590 24 -80 28 -107 28 -240 1 -126 -3 -164 -22 -235
-60 -226 -188 -390 -398 -510 -235 -134 -574 -142 -841 -19 -255 117 -433 372
-462 661 -19 188 21 376 114 544 50 91 197 238 285 286 183 101 398 137 610
103z m2056 0 c128 -23 234 -76 318 -161 l66 -67 49 47 c100 93 228 152 386
180 135 24 165 22 325 -16 79 -19 201 -89 262 -150 70 -70 129 -187 155 -308
16 -76 18 -140 18 -630 l0 -545 -227 -3 -228 -2 0 479 c0 317 -4 498 -11 533
-34 160 -136 247 -289 248 -159 0 -272 -101 -315 -282 -12 -51 -15 -152 -15
-520 l0 -458 -230 0 -230 0 0 483 c-1 521 -4 567 -53 650 -51 86 -134 127
-260 127 -149 0 -255 -100 -293 -279 -10 -51 -14 -169 -14 -523 l0 -458 -229
0 c-174 0 -230 3 -233 13 -3 11 -3 553 1 1355 l1 272 218 -2 217 -3 0 -78 c0
-42 4 -77 8 -77 5 0 29 18 55 39 68 57 147 97 232 120 133 35 187 38 316 16z
m2795 0 c143 -19 204 -36 299 -86 106 -55 190 -141 240 -244 75 -156 73 -135
77 -762 l4 -563 -211 0 c-241 0 -222 -8 -224 101 -1 38 -4 69 -7 69 -3 0 -16
-12 -30 -26 -40 -43 -135 -104 -206 -130 -103 -39 -256 -50 -384 -29 -131 22
-199 46 -267 93 -73 50 -122 107 -166 194 -31 62 -37 86 -42 163 -18 253 125
430 408 506 62 17 118 21 362 26 l289 6 -6 53 c-7 71 -58 165 -108 199 -49 34
-165 65 -245 65 -138 0 -306 -45 -409 -111 -26 -17 -54 -29 -62 -27 -9 2 -49
70 -91 152 -56 112 -72 154 -65 165 33 52 324 162 478 180 50 6 101 13 115 15
58 8 143 5 251 -9z m-8559 -507 c4 -469 5 -496 25 -549 47 -125 114 -188 228
-209 168 -32 330 40 393 173 54 115 55 129 59 617 l3 455 233 0 232 0 0 -815
0 -815 -222 -3 -223 -2 -1 82 c-1 46 -1 86 0 91 2 16 -17 5 -49 -28 -125 -129
-335 -191 -557 -165 -133 16 -209 42 -298 101 -92 62 -162 145 -215 254 -75
156 -74 145 -78 758 l-3 547 235 0 234 0 4 -492z"/>
<path d="M3134 6006 c-181 -45 -305 -231 -304 -454 1 -238 155 -418 374 -439
122 -11 266 49 337 142 153 199 122 543 -61 678 -94 70 -239 101 -346 73z"/>
<path d="M10282 6373 c-6 -10 -26 -61 -45 -113 -41 -109 -103 -266 -117 -295
-18 -37 -151 -350 -157 -366 -7 -23 27 -26 312 -26 284 0 358 4 351 20 -3 7
-17 41 -31 77 -46 113 -83 202 -120 290 -20 47 -66 163 -103 258 -36 94 -69
172 -74 172 -4 0 -11 -8 -16 -17z"/>
<path d="M5030 5416 c-73 -21 -108 -44 -135 -89 -46 -80 -26 -185 48 -241 74
-57 217 -68 332 -25 68 25 148 97 180 163 22 45 25 64 23 127 l-3 74 -200 2
c-135 1 -215 -3 -245 -11z"/>
<path d="M15570 6006 c-124 -33 -225 -122 -276 -242 -27 -65 -29 -77 -28 -204
0 -115 4 -143 23 -193 95 -242 392 -333 607 -186 209 142 229 530 39 721 -96
96 -242 138 -365 104z"/>
<path d="M20385 5419 c-22 -5 -50 -11 -62 -14 -34 -8 -84 -56 -104 -100 -76
-166 90 -310 306 -265 83 17 141 49 203 113 64 64 80 107 78 201 l-1 71 -190
2 c-104 0 -208 -3 -230 -8z"/>
</g>
</svg>
